<svg width="21" height="22" viewBox="0 0 21 22" fill="none" xmlns="http://www.w3.org/2000/svg">
<path d="M15.0005 5.46204C14.9747 5.41192 14.9684 5.38212 14.9686 5.3723C14.972 5.10683 14.9616 4.87353 14.9373 4.65174C14.8874 4.1208 14.7666 3.61254 14.578 3.14391C13.7349 1.04147 11.7838 -0.209697 9.72837 0.0290246C7.47488 0.287379 5.78423 1.97569 5.42154 4.32971C5.39622 4.49935 5.38098 4.67375 5.37501 4.8637C5.36951 4.98358 5.36635 5.1004 5.36321 5.21621L5.35835 5.38651C5.35692 5.42038 5.35582 5.45052 5.35346 5.46406C5.35048 5.46441 5.34182 5.4688 5.32705 5.47457C4.93371 5.6144 4.69727 5.96215 4.69727 6.4037V6.40474C4.70026 7.01017 4.73437 7.5946 4.7985 8.14179C4.85227 8.60874 5.20664 8.92534 5.70106 8.94837C5.72559 8.94938 5.75687 8.95921 5.78187 8.9731C5.92494 9.45256 6.27095 10.3126 7.04601 11.0772C7.37411 11.3982 7.75472 11.6779 8.17841 11.9092C8.51814 12.4974 9.70008 13.1969 10.1098 13.331C10.176 13.3537 10.2472 13.3689 10.3251 13.3767C10.3589 13.3801 10.3931 13.3821 10.427 13.3821C10.5856 13.3821 10.7441 13.3432 10.89 13.2673C11.1593 13.1265 11.3638 12.8691 11.4519 12.5613C11.5366 12.2651 11.5091 11.9512 11.3742 11.6776C11.2392 11.4036 11.0126 11.2028 10.7366 11.1121C10.3456 10.9858 9.2355 10.8842 8.61201 11.0549C7.27067 10.3374 6.79053 9.22671 6.62312 8.62363C6.61808 8.56235 6.59938 8.47024 6.58286 8.39C6.57059 8.3304 6.55865 8.27961 6.55755 8.24812C6.52862 7.45543 6.48051 6.65495 6.43792 5.96724C6.43005 5.86329 6.39515 5.77289 6.36418 5.69262C6.35208 5.66113 6.33981 5.62965 6.32991 5.59815L6.30744 5.53247C6.29171 5.4881 6.27536 5.44273 6.27425 5.41293C6.19895 3.15305 7.59248 1.34589 9.66344 1.01879C10.6823 0.855234 11.7545 1.18606 12.6027 1.9249C13.4475 2.66104 13.9692 3.71547 14.0336 4.81731C14.0372 4.88775 14.0435 4.95749 14.0498 5.0276L14.0589 5.13256C14.0635 5.2118 14.0666 5.29239 14.0591 5.37262C14.0443 5.51858 14.0099 5.61339 13.9479 5.69872C13.8857 5.78506 13.8852 5.88936 13.8849 5.96555C13.8849 5.98282 13.8851 6.00009 13.8838 6.01634L13.8428 6.80497C13.8167 7.30205 13.7906 7.79878 13.7668 8.29688C13.7598 8.47024 13.7727 8.71304 13.9655 8.83493C14.0212 8.87793 14.1042 8.9074 14.2157 8.92061C14.2276 8.92365 14.2542 8.92602 14.2812 8.92771L14.3647 8.93347C14.6519 8.95242 14.9785 8.97377 15.2515 8.6829C15.4575 8.46449 15.5675 8.19801 15.5878 7.86854L15.6301 7.00169C15.6402 6.85102 15.6505 6.69526 15.6464 6.53644C15.6361 6.0011 15.4188 5.63946 15.0005 5.46204Z" fill="#004837"/>
<path d="M17.5773 15.3922C17.5773 15.3922 15.4473 14.591 14.5098 14.2397C14.2208 14.1314 13.9032 14.2779 13.7761 14.5776L10.8055 20.2258C10.4999 20.797 9.73424 20.7961 9.42973 20.2242L6.56299 14.5776C6.43586 14.2779 6.11826 14.1314 5.82929 14.2397C4.8918 14.591 2.7618 15.3922 2.7618 15.3922C1.33415 15.8661 0.469474 17.8603 0.0143521 20.4908C-0.0796844 21.0343 0.299987 21.5389 0.813376 21.5389H19.5334C20.0478 21.5389 20.4278 21.0325 20.332 20.4883C19.8691 17.859 19.0045 15.8659 17.5773 15.3922Z" fill="#004837"/>
<path d="M11.2066 14.4981L9.06265 14.4835C8.87046 14.4777 8.72333 14.6491 8.75936 14.832L9.07466 16.3451C9.10467 16.4787 9.22178 16.5745 9.35992 16.5803L10.8733 16.5919C11.0114 16.589 11.1315 16.4961 11.1616 16.3596L11.5009 14.8553C11.5429 14.6723 11.3988 14.4981 11.2066 14.4981Z" fill="#004837"/>
<path d="M9.15667 16.9736L8.94727 18.1889L9.88228 19.965C9.93099 20.0629 10.0284 20.1154 10.1323 20.1189C10.2362 20.1154 10.3335 20.0629 10.3823 19.965L11.3173 18.1889L11.1079 16.9736H9.15667Z" fill="#004837"/>
</svg>
