<svg width="50" height="50" viewBox="0 0 50 50" fill="none" xmlns="http://www.w3.org/2000/svg">
<path d="M20.5326 20.4551H26.6273L20.8745 32.0006C21.3342 32.029 21.6595 32.0662 21.9844 32.0667C24.4703 32.0719 26.9561 32.0553 29.4416 32.0754C30.9709 32.0877 31.5203 32.9012 30.9332 34.3083C28.8609 39.2716 26.768 44.2263 24.6546 49.1724C24.5232 49.4788 24.0189 49.8335 23.7063 49.8173C13.268 49.2805 4.52537 42.4555 1.31665 32.8175C1.27594 32.6954 1.28732 32.5548 1.29302 32.6148C3.10643 33.0124 4.9194 33.6577 6.76346 33.7658C11.8696 34.0653 16.1168 32.1415 19.0918 27.9618C20.6215 25.8121 21.4962 23.3065 20.5326 20.4551Z" fill="#673206"/>
<path d="M25.707 49.7448L46.422 25.132C45.3139 25.132 44.4681 25.132 43.62 25.132C41.3434 25.1359 39.0611 25.1806 36.7841 25.1167C36.2302 25.1014 35.4045 24.8719 35.2115 24.4867C34.9825 24.0305 35.1186 23.1846 35.415 22.7043C37.8987 18.6835 40.4551 14.7077 42.9892 10.7189C43.3004 10.2285 43.6148 9.74035 43.9366 9.2373C48.999 14.5304 51.9012 24.9578 47.8712 34.5519C43.416 45.1662 33.2702 49.8162 25.707 49.7448Z" fill="#673206"/>
<path d="M8.53142 18.8733C7.53234 17.6474 7.82655 17.4776 9.37464 17.1221C12.6775 16.1151 17.0363 14.2737 17.5179 10.4284C17.5582 9.77168 17.2872 9.46171 16.6257 9.4709C13.174 9.51906 9.72227 9.58035 6.27013 9.59174C2.27293 10.702 -0.278634 21.9078 0.0243312 25.7842C0.0308983 27.3747 0.681051 28.3002 2.05884 28.8633C7.27185 31.1697 14.1656 27.4461 16.0688 23.2654C18.4329 16.7298 13.5295 22.2895 10.7901 21.3299C10.3173 21.2817 8.86372 19.178 8.53142 18.8733Z" fill="#673206"/>
<path d="M25.8117 10.2824C25.4857 10.3271 25.1786 10.4615 24.9246 10.6706C24.6706 10.8797 24.4797 11.1552 24.3731 11.4665C24.2665 11.7777 24.2485 12.1124 24.3211 12.4333C24.3936 12.7542 24.5539 13.0487 24.784 13.2838C25.0141 13.5189 25.3051 13.6855 25.6243 13.7649C25.9436 13.8443 26.2786 13.8335 26.5921 13.7337C26.9056 13.6338 27.1851 13.4488 27.3996 13.1994C27.6141 12.9499 27.7551 12.6458 27.8068 12.3209C27.8495 12.0472 27.8278 11.7674 27.7433 11.5036C27.6589 11.2398 27.514 10.9994 27.3203 10.8015C27.1265 10.6035 26.8893 10.4535 26.6274 10.3634C26.3655 10.2733 26.0862 10.2456 25.8117 10.2824Z" fill="#673206"/>
<path d="M40.9559 6.13063C38.7589 6.13063 36.7967 6.1674 34.8405 6.11224C34.0827 6.09079 33.6768 6.31057 33.3415 7.01588C32.155 9.50746 30.8696 11.9513 29.6687 14.4363C29.3771 15.0405 29.061 15.3076 28.3513 15.2922C25.9841 15.2415 23.6151 15.273 21.0368 15.273C22.0924 13.2337 22.2482 11.3073 20.9817 9.0911C23.8502 9.0911 26.3912 9.11124 28.9314 9.07227C29.1159 9.07101 29.3 9.0574 29.4826 9.03156H29.4887C29.5537 9.02154 29.616 8.99838 29.6718 8.96349C29.7275 8.9286 29.7756 8.88271 29.813 8.82862C29.8504 8.77453 29.8764 8.71338 29.8893 8.64891C29.9023 8.58444 29.902 8.518 29.8885 8.45365C29.8018 8.04212 29.6926 7.63566 29.5614 7.2361C29.255 6.30006 29.0391 5.67706 28.4468 5.23093C28.2163 5.05565 27.9538 4.92701 27.674 4.85222C26.8347 4.62587 24.7845 4.6574 23.7337 4.74189C19.8179 5.05624 15.8689 4.94985 11.9339 5.01946C11.458 5.02822 10.9808 5.01946 10.4453 5.01946C17.7738 -1.21408 31.8109 -2.01659 40.9559 6.13063Z" fill="#673206"/>
<path d="M25.652 10.4386C26.023 10.3873 26.4007 10.4547 26.7311 10.6311C27.0616 10.8075 27.3277 11.0838 27.4916 11.4206C27.6555 11.7574 27.7087 12.1374 27.6436 12.5062C27.5786 12.8751 27.3985 13.2139 27.1292 13.4743C26.86 13.7346 26.5153 13.9031 26.1444 13.9558C25.7736 14.0084 25.3956 13.9424 25.0645 13.7673C24.7335 13.5922 24.4662 13.3168 24.3011 12.9807C24.1359 12.6445 24.0813 12.2647 24.145 11.8956C24.2097 11.5246 24.3905 11.1836 24.6613 10.9218C24.9321 10.66 25.2789 10.4908 25.652 10.4386Z" fill="#F0FDFA"/>
</svg>
